<svg xmlns="http://www.w3.org/2000/svg" xmlns:xlink="http://www.w3.org/1999/xlink" fill="none" version="1.1" width="19.800048828125" height="21.7998046875" viewBox="0 0 19.800048828125 21.7998046875"><ellipse cx="9.9000244140625" cy="4.89990234375" rx="3.550000011920929" ry="3.550000011920929" fill-opacity="0" stroke-opacity="1" stroke="#F48500" fill="none" stroke-width="1.7999999523162842" stroke-linecap="ROUND" stroke-linejoin="round" style="mix-blend-mode:passthrough"/><path d="M2.8996720140625003,13.89955054375Q0.00002443406249996727,16.79919814375,0.00002443406249996727,20.899903343749997L0.00020438406250000707,20.899903343749997Q0.0002044440624999755,20.98852734375,0.01749420406250002,21.07544894375Q0.03478401406249998,21.162370643750002,0.06869918406249997,21.24424934375Q0.10261428406249995,21.32612804375,0.1518514740625,21.39981654375Q0.20108860406249995,21.473505043750002,0.2637555640625,21.53617194375Q0.32642257406249997,21.598838843750002,0.4001111940625,21.64807514375Q0.4737998240625,21.69731334375,0.5556782140625001,21.73122784375Q0.6375566140625,21.76514344375,0.7244782440624999,21.782433543750003Q0.8113998770624999,21.79972364375,0.9000244140625,21.79972364375Q0.9886489510625001,21.79972364375,1.0755705840625,21.782433543750003Q1.1624922140625,21.76514344375,1.2443706140625,21.73122784375Q1.3262490040625,21.69731334375,1.3999376340625,21.64807514375Q1.4736262540625,21.598838843750002,1.5362932640625,21.53617094375Q1.5989602240625,21.473504043749998,1.6481973540625,21.39981554375Q1.6974345440625,21.326126143750002,1.7313497040625,21.24424834375Q1.7652648640625,21.162370643750002,1.7825546240625,21.07544894375Q1.7998443840625,20.98852734375,1.7998444440624999,20.899903343749997L1.8000243940625,20.899903343749997Q1.8000243940625,17.54478264375,4.1724641140625,15.17234254375Q6.5449033140625,12.79990291375,9.9000244140625,12.79990285375Q13.2551454140625,12.79990232375,15.6275854140625,15.17234204375Q18.0000244140625,17.544781243750002,18.0000244140625,20.899903343749997L18.0002044140625,20.899903343749997Q18.0002024140625,20.98852734375,18.0174924140625,21.07544894375Q18.0347824140625,21.162370643750002,18.0686974140625,21.24424934375Q18.1026114140625,21.32612804375,18.1518494140625,21.39981654375Q18.2010884140625,21.473505043750002,18.2637534140625,21.53617194375Q18.3264214140625,21.598838843750002,18.4001104140625,21.64807514375Q18.4737964140625,21.69731334375,18.5556754140625,21.73122784375Q18.6375544140625,21.76514344375,18.7244774140625,21.782433543750003Q18.8114014140625,21.79972364375,18.9000244140625,21.79972364375Q18.9886474140625,21.79972364375,19.0755694140625,21.782433543750003Q19.1624904140625,21.76514344375,19.2443694140625,21.73122784375Q19.3262484140625,21.69731334375,19.3999364140625,21.64807514375Q19.4736254140625,21.598838843750002,19.5362934140625,21.53617094375Q19.5989604140625,21.473504043749998,19.6481974140625,21.39981554375Q19.6974334140625,21.326126143750002,19.7313484140625,21.24424834375Q19.7652624140625,21.162370643750002,19.7825544140625,21.07544894375Q19.7998424140625,20.98852734375,19.7998444140625,20.899903343749997L19.8000244140625,20.899903343749997Q19.8000244140625,16.79919674375,16.9003774140625,13.89954994375Q14.0007284140625,10.99990236375,9.9000244140625,10.99990290375Q5.7993202140625,10.99990284375,2.8996720140625003,13.89955054375Z" fill-rule="evenodd" fill="#F48500" fill-opacity="1" style="mix-blend-mode:passthrough"/></svg>